
            <svg id="trend-chart" width="660" height="400" title="Stack Overflow Trends Chart" version="1.1" xmlns="http://www.w3.org/2000/svg"><g></g><g class="chart-area" transform="translate(100, 20)"><g transform="translate(0,300)" fill="none" font-size="10" font-family="sans-serif" text-anchor="middle"><path class="domain" stroke="#000" d="M0.5,6V0.5H410.5V6"></path><g class="tick" opacity="1" transform="translate(40.097302739736804,0)"><line stroke="#000" y2="6" x1="0.5" x2="0.5"></line><text fill="#000" y="9" x="0.5" dy="0.71em" style="font-size: 12px;">2010</text></g><g class="tick" opacity="1" transform="translate(96.60053960937316,0)"><line stroke="#000" y2="6" x1="0.5" x2="0.5"></line><text fill="#000" y="9" x="0.5" dy="0.71em" style="font-size: 12px;">2012</text></g><g class="tick" opacity="1" transform="translate(153.18117817335147,0)"><line stroke="#000" y2="6" x1="0.5" x2="0.5"></line><text fill="#000" y="9" x="0.5" dy="0.71em" style="font-size: 12px;">2014</text></g><g class="tick" opacity="1" transform="translate(209.68441504298787,0)"><line stroke="#000" y2="6" x1="0.5" x2="0.5"></line><text fill="#000" y="9" x="0.5" dy="0.71em" style="font-size: 12px;">2016</text></g><g class="tick" opacity="1" transform="translate(266.26505360696615,0)"><line stroke="#000" y2="6" x1="0.5" x2="0.5"></line><text fill="#000" y="9" x="0.5" dy="0.71em" style="font-size: 12px;">2018</text></g><g class="tick" opacity="1" transform="translate(322.7682904766025,0)"><line stroke="#000" y2="6" x1="0.5" x2="0.5"></line><text fill="#000" y="9" x="0.5" dy="0.71em" style="font-size: 12px;">2020</text></g><g class="tick" opacity="1" transform="translate(379.3489290405808,0)"><line stroke="#000" y2="6" x1="0.5" x2="0.5"></line><text fill="#000" y="9" x="0.5" dy="0.71em" style="font-size: 12px;">2022</text></g></g><g class="grid-lines" transform="translate(0,300)" fill="none" font-size="10" font-family="sans-serif" text-anchor="middle"><path class="domain" stroke="#000" d="M0.5,-300V0.5H410.5V-300"></path><g class="tick" opacity="1" transform="translate(40.097302739736804,0)"><line stroke="#000" y2="-300" x1="0.5" x2="0.5" style="stroke: #ccc; fill: none;"></line></g><g class="tick" opacity="1" transform="translate(96.60053960937316,0)"><line stroke="#000" y2="-300" x1="0.5" x2="0.5" style="stroke: #ccc; fill: none;"></line></g><g class="tick" opacity="1" transform="translate(153.18117817335147,0)"><line stroke="#000" y2="-300" x1="0.5" x2="0.5" style="stroke: #ccc; fill: none;"></line></g><g class="tick" opacity="1" transform="translate(209.68441504298787,0)"><line stroke="#000" y2="-300" x1="0.5" x2="0.5" style="stroke: #ccc; fill: none;"></line></g><g class="tick" opacity="1" transform="translate(266.26505360696615,0)"><line stroke="#000" y2="-300" x1="0.5" x2="0.5" style="stroke: #ccc; fill: none;"></line></g><g class="tick" opacity="1" transform="translate(322.7682904766025,0)"><line stroke="#000" y2="-300" x1="0.5" x2="0.5" style="stroke: #ccc; fill: none;"></line></g><g class="tick" opacity="1" transform="translate(379.3489290405808,0)"><line stroke="#000" y2="-300" x1="0.5" x2="0.5" style="stroke: #ccc; fill: none;"></line></g></g><text x="205" y="360" class="axis-label x-axis-label" style="text-anchor: middle; font-weight: bold;">Year</text><g fill="none" font-size="10" font-family="sans-serif" text-anchor="end"><path class="domain" stroke="#000" d="M-6,300.5H0.5V0.5H-6"></path><g class="tick" opacity="1" transform="translate(0,300)"><line stroke="#000" x2="-6" y1="0.5" y2="0.5"></line><text fill="#000" x="-9" y="0.5" dy="0.32em" style="font-size: 12px;">0.00%</text></g><g class="tick" opacity="1" transform="translate(0,270)"><line stroke="#000" x2="-6" y1="0.5" y2="0.5"></line><text fill="#000" x="-9" y="0.5" dy="0.32em" style="font-size: 12px;">0.01%</text></g><g class="tick" opacity="1" transform="translate(0,240)"><line stroke="#000" x2="-6" y1="0.5" y2="0.5"></line><text fill="#000" x="-9" y="0.5" dy="0.32em" style="font-size: 12px;">0.02%</text></g><g class="tick" opacity="1" transform="translate(0,210)"><line stroke="#000" x2="-6" y1="0.5" y2="0.5"></line><text fill="#000" x="-9" y="0.5" dy="0.32em" style="font-size: 12px;">0.03%</text></g><g class="tick" opacity="1" transform="translate(0,180)"><line stroke="#000" x2="-6" y1="0.5" y2="0.5"></line><text fill="#000" x="-9" y="0.5" dy="0.32em" style="font-size: 12px;">0.04%</text></g><g class="tick" opacity="1" transform="translate(0,150)"><line stroke="#000" x2="-6" y1="0.5" y2="0.5"></line><text fill="#000" x="-9" y="0.5" dy="0.32em" style="font-size: 12px;">0.05%</text></g><g class="tick" opacity="1" transform="translate(0,120)"><line stroke="#000" x2="-6" y1="0.5" y2="0.5"></line><text fill="#000" x="-9" y="0.5" dy="0.32em" style="font-size: 12px;">0.06%</text></g><g class="tick" opacity="1" transform="translate(0,90)"><line stroke="#000" x2="-6" y1="0.5" y2="0.5"></line><text fill="#000" x="-9" y="0.5" dy="0.32em" style="font-size: 12px;">0.07%</text></g><g class="tick" opacity="1" transform="translate(0,60)"><line stroke="#000" x2="-6" y1="0.5" y2="0.5"></line><text fill="#000" x="-9" y="0.5" dy="0.32em" style="font-size: 12px;">0.08%</text></g><g class="tick" opacity="1" transform="translate(0,30)"><line stroke="#000" x2="-6" y1="0.5" y2="0.5"></line><text fill="#000" x="-9" y="0.5" dy="0.32em" style="font-size: 12px;">0.09%</text></g><g class="tick" opacity="1" transform="translate(0,0)"><line stroke="#000" x2="-6" y1="0.5" y2="0.5"></line><text fill="#000" x="-9" y="0.5" dy="0.32em" style="font-size: 12px;">0.10%</text></g></g><g class="grid-lines" fill="none" font-size="10" font-family="sans-serif" text-anchor="end"><path class="domain" stroke="#000" d="M410,300.5H0.5V0.5H410"></path><g class="tick" opacity="1" transform="translate(0,300)"><line stroke="#000" x2="410" y1="0.5" y2="0.5" style="stroke: #ccc; fill: none;"></line></g><g class="tick" opacity="1" transform="translate(0,270)"><line stroke="#000" x2="410" y1="0.5" y2="0.5" style="stroke: #ccc; fill: none;"></line></g><g class="tick" opacity="1" transform="translate(0,240)"><line stroke="#000" x2="410" y1="0.5" y2="0.5" style="stroke: #ccc; fill: none;"></line></g><g class="tick" opacity="1" transform="translate(0,210)"><line stroke="#000" x2="410" y1="0.5" y2="0.5" style="stroke: #ccc; fill: none;"></line></g><g class="tick" opacity="1" transform="translate(0,180)"><line stroke="#000" x2="410" y1="0.5" y2="0.5" style="stroke: #ccc; fill: none;"></line></g><g class="tick" opacity="1" transform="translate(0,150)"><line stroke="#000" x2="410" y1="0.5" y2="0.5" style="stroke: #ccc; fill: none;"></line></g><g class="tick" opacity="1" transform="translate(0,120)"><line stroke="#000" x2="410" y1="0.5" y2="0.5" style="stroke: #ccc; fill: none;"></line></g><g class="tick" opacity="1" transform="translate(0,90)"><line stroke="#000" x2="410" y1="0.5" y2="0.5" style="stroke: #ccc; fill: none;"></line></g><g class="tick" opacity="1" transform="translate(0,60)"><line stroke="#000" x2="410" y1="0.5" y2="0.5" style="stroke: #ccc; fill: none;"></line></g><g class="tick" opacity="1" transform="translate(0,30)"><line stroke="#000" x2="410" y1="0.5" y2="0.5" style="stroke: #ccc; fill: none;"></line></g><g class="tick" opacity="1" transform="translate(0,0)"><line stroke="#000" x2="410" y1="0.5" y2="0.5" style="stroke: #ccc; fill: none;"></line></g></g><g class="lines"><path class="line" d="M2.3994525246009957,147.74885811900003L4.721503354860024,153.821523042L7.124180950058602,204.12272291699998L9.44623178031763,199.19354838899997L11.845684304918626,261.688270227L14.245136829519621,196.34918807100001L16.412384271094716,285.154394301L18.808611725098128,271.50185238L21.13066255535716,241.148775897L23.530115079958154,224.873895468L25.852165910217177,187.56675723899997L28.25161843481818,262.902278421L30.651070959419172,254.061006984L32.9731217896782,241.564404375L35.37579938487678,244.837006491L37.69785021513581,195.67450445400002L40.097302739736804,252.853486599L42.4967552643378,245.976364662L44.66400270591289,230.485826835L47.06023015991631,257.694554685L49.38228099017533,212.675619033L51.78173351477633,218.587400949L54.10378434503536,265.186830678L56.50323686963636,247.755877464L58.90268939423735,250.60346105099998L61.22474022449637,266.836170684L63.627417819694955,273.959463567L65.94946864995399,252.209236653L68.34892117455497,262.204724412L70.74837369915598,241.711496196L72.91562114073108,249.162172671L75.31184859473449,233.76090842399998L77.6338994249935,233.897541189L80.0333519495945,248.276911221L82.35540277985353,276.0486213L84.75485530445454,221.312212533L87.15430782905553,276.391430091L89.47635865931456,246.551058588L91.87903625451314,241.97879923800002L94.20108708477217,256.47716502000003L96.60053960937316,266.320370997L98.99999213397416,227.085949464L101.24464126989122,218.941435188L103.6440937944922,215.93106347399998L105.96614462475122,246.249804036L108.36559714935223,249.327047841L110.68764797961126,251.129337273L113.08710050421226,248.809828515L115.48655302881326,252.074125353L117.80860385907229,227.488552593L120.20805638367328,259.208370444L122.53010721393231,239.78993376900002L124.9295597385333,255.920682783L127.32901226313429,238.83108170399998L129.4962597047094,228.67456465499998L131.8957122293104,231.27349624200002L134.21776305956942,202.035484926L136.6172155841704,204.547363599L138.93926641442943,223.011559674L141.33871893903043,237.890035788L143.73817146363143,241.660488351L146.06022229389046,224.606643357L148.45967481849144,214.37525330699998L150.78172564875047,232.501459428L153.18117817335147,234.466756533L155.58063069795247,229.320296856L157.74787813952756,228.762157683L160.14733066412856,237.79966308299998L162.4693814943876,200.465637765L164.8688340189886,171.661334724L167.19088484924762,219.828056769L169.59033737384863,251.940554163L171.98978989844963,230.931276621L174.31184072870863,230.168816886L176.71129325330963,242.051730903L179.03334408356864,255.307407312L181.43279660816964,247.242671583L183.83224913277064,204.932167011L185.99949657434573,210.912195486L188.39894909894673,261.796417353L190.72099992920576,233.290306485L193.12045245380676,240.493422111L195.4425032840658,225.788497218L197.8419558086668,230.05207234800002L200.2414083332678,267.700258398L202.5634591635268,261.078346047L204.9629116881278,237.266870127L207.28496251838686,252.677517732L209.68441504298787,259.920732117L212.0838675675888,214.90728104700003L214.3285167035059,209.968939287L216.72796922810687,226.174290198L219.0500200583659,226.502700228L221.4494725829669,234.302373327L223.7715234132259,233.24051673L226.1709759378269,253.342405644L228.5704284624279,239.957970582L230.89247929268697,261.98178582L233.29193181728797,260.230318332L235.61398264754698,266.395340154L238.01343517214798,257.142122439L240.41288769674898,256.751644881L242.58013513832404,256.406928795L244.97958766292504,262.682136618L247.3016384931841,243.159980298L249.7010910177851,226.89395656800002L252.0231418480441,262.915723173L254.4225943726451,274.377515988L256.8220468972461,251.39308660199998L259.14409772750514,235.865079132L261.5435502521061,246.19831302L263.8656010823652,264.549113382L266.26505360696615,250.846635201L268.6645061315672,262.365058929L270.83175357314224,249.143030844L273.2312060977432,242.155545606L275.55325692800227,245.70594339L277.95270945260324,219.38760797700002L280.2747602828623,233.436032028L282.6742128074633,257.762432886L285.07366533206425,257.863689036L287.3957161623233,256.405817613L289.7951686869243,253.264697916L292.11721951718334,256.27761414L294.5166720417843,240.92282619899999L296.91612456638535,268.830089355L299.0833720079604,264.100367814L301.4828245325614,254.38921206L303.80487536282044,255.760220397L306.20432788742147,250.726044273L308.5263787176805,267.774637299L310.92583124228145,277.801456227L313.3252837668825,262.182163329L315.6473345971415,252.197265951L318.04678712174245,261.086837796L320.3688379520015,233.551772337L322.7682904766025,271.03388346L325.1677430012035,247.711506957L327.41239213712055,259.18658210399997L329.8118446617216,243.623359827L332.1338954919806,247.983831642L334.53334801658156,261.170988846L336.8553988468406,268.944666705L339.2548513714416,257.074526799L341.65430389604256,255.02280986099998L343.9763547263016,240.112075974L346.37580725090265,252.844664337L348.69785808116166,263.814003981L351.09731060576263,254.502780387L353.49676313036366,263.148358569L355.6640105719388,267.414548049L358.06346309653975,264.410700519L360.38551392679875,252.49119579L362.7849664513998,234.194033595L365.1070172816588,251.153589399L367.50646980625976,267.751804659L369.9059223308608,267.14959569L372.2279731611198,249.13616249400002L374.6274256857208,251.786031483L376.9494765159798,262.303101021L379.3489290405808,277.243419558L381.74838156518183,252.304403895L383.91562900675694,253.153233543L386.3150815313579,265.044386349L388.6371323616169,259.396503828L391.03658488621795,255.524587491L393.35863571647695,257.317118832L395.7580882410779,264.802158801L398.15754076567896,264.29336571L400.479591595938,276.982038318L402.879044120539,256.135541178L405.201094950798,270.03994674L407.600547475399,259.851114552L410,268.065288744" data-legend="rdf" style="stroke: rgb(31, 119, 180); fill: none;"></path><path class="line" d="M2.3994525246009957,212.99934749699997L4.721503354860024,258.23472087L7.124180950058602,276.03068073000003L9.44623178031763,274.798387098L11.845684304918626,280.844135115L14.245136829519621,282.72486468L16.412384271094716,285.154394301L18.808611725098128,300L21.13066255535716,217.608286254L23.530115079958154,267.803098059L25.852165910217177,262.522252413L28.25161843481818,290.725569606L30.651070959419172,281.624402796L32.9731217896782,283.30411553700003L35.37579938487678,268.478289423L37.69785021513581,283.949923764L40.097302739736804,286.529567601L42.4967552643378,286.494091167L44.66400270591289,288.414304473L47.06023015991631,269.781824775L49.38228099017533,288.356749206L51.78173351477633,245.72493396599998L54.10378434503536,275.133450483L56.50323686963636,276.252671577L58.90268939423735,280.241384421L61.22474022449637,281.049240393L63.627417819694955,286.979731785L65.94946864995399,282.621540603L68.34892117455497,284.881889766L70.74837369915598,281.784842562L72.91562114073108,288.038158278L75.31184859473449,284.22878772L77.6338994249935,275.962742253L80.0333519495945,290.872396098L82.35540277985353,297.006077664L84.75485530445454,277.517775012L87.15430782905553,297.048928764L89.47635865931456,279.214300563L91.87903625451314,294.474171357L94.20108708477217,285.492388341L96.60053960937316,292.227777924L98.99999213397416,278.125784841L101.24464126989122,281.986985598L103.6440937944922,276.647517633L105.96614462475122,282.083268012L108.36559714935223,279.270155937L110.68764797961126,276.627074349L113.08710050421226,282.936609507L115.48655302881326,286.306892958L117.80860385907229,253.673241936L120.20805638367328,265.327114878L122.53010721393231,273.239970564L124.9295597385333,278.918587419L127.32901226313429,280.268090874L129.4962597047094,272.16568377L131.8957122293104,259.468984965L134.21776305956942,260.088530898L136.6172155841704,250.364629074L138.93926641442943,269.204623869L141.33871893903043,276.930584721L143.73817146363143,279.945792873L146.06022229389046,252.469405596L148.45967481849144,267.462596259L150.78172564875047,261.69001751400003L153.18117817335147,272.827679538L155.58063069795247,245.383865754L157.74787813952756,265.10799560099997L160.14733066412856,265.789814697L162.4693814943876,265.677806127L164.8688340189886,253.500483597L167.19088484924762,243.709061136L169.59033737384863,281.515597755L171.98978989844963,249.10725645899998L174.31184072870863,242.389273932L176.71129325330963,278.269399089L179.03334408356864,270.852656943L181.43279660816964,265.434853797L183.83224913277064,262.331613345L185.99949657434573,242.729268528L188.39894909894673,242.69462603099998L190.72099992920576,252.815094831L193.12045245380676,258.18456689100003L195.4425032840658,258.256029687L197.8419558086668,271.68774357L200.2414083332678,267.700258398L202.5634591635268,270.808759536L204.9629116881278,274.567650051L207.28496251838686,263.193624903L209.68441504298787,283.300305048L212.0838675675888,232.568034039L214.3285167035059,242.980328214L216.72796922810687,232.326432681L219.0500200583659,239.284839318L221.4494725829669,260.581423998L223.7715234132259,241.799424843L226.1709759378269,255.0087483L228.5704284624279,266.447101209L230.89247929268697,270.622289043L233.29193181728797,279.250600869L235.61398264754698,275.729967891L238.01343517214798,284.571164079L240.41288769674898,263.671381701L242.58013513832404,266.929394259L244.97958766292504,238.934405376L247.3016384931841,246.407981424L249.7010910177851,254.096205288L252.0231418480441,259.544425278L254.4225943726451,269.25301918499997L256.8220468972461,273.827046633L259.14409772750514,250.11728376899998L261.5435502521061,273.09915651L263.8656010823652,243.695650665L266.26505360696615,258.408691326L268.6645061315672,268.307418045L270.83175357314224,271.940982534L273.2312060977432,251.485296315L275.55325692800227,254.754952827L277.95270945260324,235.11685520100002L280.2747602828623,239.141514996L282.6742128074633,278.88121644299997L285.07366533206425,241.009164648L287.3957161623233,267.77821302L289.7951686869243,281.712273099L292.11721951718334,260.879970546L294.5166720417843,273.517128987L296.91612456638535,275.064071484L299.0833720079604,277.326548094L301.4828245325614,278.186144898L303.80487536282044,275.869211127L306.20432788742147,279.842472657L308.5263787176805,277.845063144L310.92583124228145,288.900728115L313.3252837668825,262.182163329L315.6473345971415,272.115071805L318.04678712174245,259.03877662499997L320.3688379520015,270.212863461L322.7682904766025,275.171900109L325.1677430012035,274.901523339L327.41239213712055,268.904062557L329.8118446617216,275.127952866L332.1338954919806,269.115400038L334.53334801658156,273.525674214L336.8553988468406,276.25180395L339.2548513714416,257.074526799L341.65430389604256,274.298748492L343.9763547263016,278.611455705L346.37580725090265,255.090156513L348.69785808116166,272.860502988L351.09731060576263,269.668520259L353.49676313036366,274.664496516L355.6640105719388,283.707274026L358.06346309653975,257.737706865L360.38551392679875,279.63908391L362.7849664513998,267.097016799L365.1070172816588,282.903756291L367.50646980625976,280.154956713L369.9059223308608,282.311320755L372.2279731611198,261.852121872L374.6274256857208,272.086649808L376.9494765159798,264.995736663L379.3489290405808,267.129383805L381.74838156518183,273.502446609L383.91562900675694,286.615209585L386.3150815313579,265.044386349L388.6371323616169,282.903791085L391.03658488621795,279.986064372L393.35863571647695,277.535325702L395.7580882410779,278.001349251L398.15754076567896,276.19557714L400.479591595938,290.792815329L402.879044120539,273.68132470800003L405.201094950798,260.053262319L407.600547475399,262.360419891L410,284.032644372" data-legend="owl" style="stroke: rgb(255, 127, 14); fill: none;"></path><path class="line" d="M2.3994525246009957,300L4.721503354860024,279.117360435L7.124180950058602,300L9.44623178031763,249.596774196L11.845684304918626,300L14.245136829519621,282.72486468L16.412384271094716,285.154394301L18.808611725098128,285.75092619L21.13066255535716,276.45951036L23.530115079958154,267.803098059L25.852165910217177,262.522252413L28.25161843481818,281.451139212L30.651070959419172,263.24880558899997L32.9731217896782,266.608231074L35.37579938487678,260.597861778L37.69785021513581,267.899847525L40.097302739736804,266.323918998L42.4967552643378,279.741136749L44.66400270591289,271.035761181L47.06023015991631,257.694554685L49.38228099017533,276.713498409L51.78173351477633,229.442414157L54.10378434503536,285.080070291L56.50323686963636,276.252671577L58.90268939423735,285.181038318L61.22474022449637,271.573860588L63.627417819694955,286.979731785L65.94946864995399,269.587696053L68.34892117455497,277.322834646L70.74837369915598,270.855748098L72.91562114073108,267.104935257L75.31184859473449,246.377878248L77.6338994249935,260.93945616L80.0333519495945,263.489584392L82.35540277985353,285.030388314L84.75485530445454,252.225271896L87.15430782905553,255.733931418L89.47635865931456,264.367372392L91.87903625451314,266.845028136L94.20108708477217,224.560419369L96.60053960937316,240.41296406700002L98.99999213397416,236.80782286800002L101.24464126989122,207.683301186L103.6440937944922,250.95978702600001L105.96614462475122,246.249804036L108.36559714935223,244.720415826L110.68764797961126,249.00452585099998L113.08710050421226,250.942752327L115.48655302881326,245.227571832L117.80860385907229,253.673241936L120.20805638367328,242.891718621L122.53010721393231,248.709943581L124.9295597385333,254.004190731L127.32901226313429,264.482563572L129.4962597047094,225.195275127L131.8957122293104,233.03571428700002L134.21776305956942,216.548746419L136.6172155841704,206.45641632899998L138.93926641442943,234.98753928000002L141.33871893903043,227.242613352L143.73817146363143,243.483598092L146.06022229389046,227.884615386L148.45967481849144,226.362717846L150.78172564875047,232.501459428L153.18117817335147,223.27815399L155.58063069795247,243.77750886299998L157.74787813952756,231.669824718L160.14733066412856,228.46961254500002L162.4693814943876,222.775063785L164.8688340189886,199.56104456699998L167.19088484924762,221.533842795L169.59033737384863,222.36551057100002L171.98978989844963,194.579316948L174.31184072870863,216.202580265L176.71129325330963,236.619080676L179.03334408356864,235.875845274L181.43279660816964,223.59283470600002L183.83224913277064,199.550968917L185.99949657434573,193.412805312L188.39894909894673,209.26649121600002L190.72099992920576,190.986598404L193.12045245380676,201.89456077800003L195.4425032840658,201.051329625L197.8419558086668,231.717499197L200.2414083332678,245.600435199L202.5634591635268,215.669749767L204.9629116881278,235.571380131L207.28496251838686,214.118458107L209.68441504298787,246.56097615299998L212.0838675675888,205.274143053L214.3285167035059,200.965833213L216.72796922810687,158.500722879L219.0500200583659,170.580841704L221.4494725829669,204.738441324L223.7715234132259,210.98735564100002L226.1709759378269,218.34920987700002L228.5704284624279,211.70289791099998L230.89247929268697,218.779269705L233.29193181728797,222.189753258L235.61398264754698,208.520648199L238.01343517214798,203.99835426L240.41288769674898,199.663816122L242.58013513832404,200.788182771L244.97958766292504,215.186674131L247.3016384931841,145.719946518L249.7010910177851,160.588475316L252.0231418480441,207.289307931L254.4225943726451,219.71621675699998L256.8220468972461,202.786173204L259.14409772750514,214.486772175L261.5435502521061,199.57018430099998L263.8656010823652,197.81803268700003L266.26505360696615,228.160466832L268.6645061315672,238.59562246500002L270.83175357314224,214.06925901L273.2312060977432,214.166293479L275.55325692800227,202.270698102L277.95270945260324,203.658360753L280.2747602828623,203.006789526L282.6742128074633,211.685086941L285.07366533206425,211.51374697199998L287.3957161623233,239.347224504L289.7951686869243,237.008940669L292.11721951718334,203.350515465L294.5166720417843,218.514243033L296.91612456638535,198.17829189000003L299.0833720079604,171.51710586L301.4828245325614,182.99841353999997L303.80487536282044,205.487743572L306.20432788742147,185.774011722L308.5263787176805,221.450678412L310.92583124228145,242.28378618600001L313.3252837668825,213.24143352L315.6473345971415,202.402751313L318.04678712174245,238.558164939L320.3688379520015,210.638590383L322.7682904766025,225.515700327L325.1677430012035,216.338411127L327.41239213712055,245.582109471L329.8118446617216,220.40944917L332.1338954919806,221.975747463L334.53334801658156,215.282157483L336.8553988468406,254.330392212L339.2548513714416,230.501614818L341.65430389604256,216.47093259900004L343.9763547263016,231.556658256L346.37580725090265,223.65326607L348.69785808116166,236.674506966L351.09731060576263,222.00476637600002L353.49676313036366,235.509627492L355.6640105719388,232.792505349L358.06346309653975,213.25108251L360.38551392679875,207.244715589L362.7849664513998,224.79318125100002L365.1070172816588,229.17270462599998L367.50646980625976,225.581087676L369.9059223308608,236.82614555400002L372.2279731611198,216.074668116L374.6274256857208,201.034485678L376.9494765159798,221.913566397L379.3489290405808,203.916660348L381.74838156518183,186.060520413L383.91562900675694,195.152475072L386.3150815313579,241.012401963L388.6371323616169,220.930033767L391.03658488621795,204.377863107L393.35863571647695,194.416030794L395.7580882410779,225.204587454L398.15754076567896,238.108500561L400.479591595938,205.626357102L402.879044120539,203.498190594L405.201094950798,195.13981358400002L407.600547475399,234.758061144L410,249.436707177" data-legend="sparql" style="stroke: rgb(44, 160, 44); fill: none;"></path></g></g><g transform="translate(20, 150)"><text transform="rotate(-90)" x="-50" y="0" dy="1em" class="axis-label y-axis-label" style="text-anchor: middle; font-weight: bold;">% of Stack Overflow questions that month</text></g><g class="legend" transform="translate(530, 30)" style="font-size: 12px;"><text class="legend-title" style="font-weight: bold;">Tag</text><g class="legend-items" transform="translate(0,20)"><text y="0em" x="1em">sparql</text><text y="1em" x="1em">rdf</text><text y="2em" x="1em">owl</text><circle cy="-0.25em" cx="0" r="0.4em" style="fill: rgb(44, 160, 44);"></circle><circle cy="0.75em" cx="0" r="0.4em" style="fill: rgb(31, 119, 180);"></circle><circle cy="1.75em" cx="0" r="0.4em" style="fill: rgb(255, 127, 14);"></circle></g><rect class="legend-box"></rect></g></svg>
        